<svg width="302" height="128" viewBox="0 0 302 128" fill="none" xmlns="http://www.w3.org/2000/svg">
<path d="M23.232 82.216H49.44V97H3.36V85.096L29.088 44.584H3.84V29.8H48.96V41.704L23.232 82.216ZM82.1288 98.344C68.0168 98.344 56.6888 87.304 56.6888 73C56.6888 58.696 68.0168 47.656 82.1288 47.656C96.2408 47.656 107.569 58.696 107.569 73C107.569 87.304 96.2408 98.344 82.1288 98.344ZM82.1288 84.328C88.3688 84.328 93.1688 79.816 93.1688 73C93.1688 66.184 88.3688 61.672 82.1288 61.672C75.8888 61.672 71.0888 66.184 71.0888 73C71.0888 79.816 75.8888 84.328 82.1288 84.328ZM148.258 47.656C160.834 47.656 171.202 58.696 171.202 73C171.202 87.304 160.834 98.344 148.258 98.344C141.826 98.344 137.122 96.136 133.954 92.488V97H119.554V29.8H133.954V53.512C137.122 49.864 141.826 47.656 148.258 47.656ZM145.378 84.712C152.002 84.712 156.802 80.2 156.802 73C156.802 65.8 152.002 61.288 145.378 61.288C138.754 61.288 133.954 65.8 133.954 73C133.954 80.2 138.754 84.712 145.378 84.712ZM190.406 44.776C185.702 44.776 181.766 40.84 181.766 36.136C181.766 31.432 185.702 27.496 190.406 27.496C195.11 27.496 199.046 31.432 199.046 36.136C199.046 40.84 195.11 44.776 190.406 44.776ZM183.206 97V49H197.606V97H183.206ZM240.112 62.824H230.224V79.816C230.224 83.944 233.776 84.328 240.112 83.944V97C221.296 98.92 215.824 93.256 215.824 79.816V62.824H208.144V49H215.824V39.88L230.224 35.56V49H240.112V62.824ZM264.031 78.76C265.855 83.752 270.271 85.48 275.551 85.48C279.487 85.48 282.847 83.944 284.767 81.832L296.288 88.456C291.583 94.984 284.479 98.344 275.359 98.344C258.943 98.344 248.767 87.304 248.767 73C248.767 58.696 259.135 47.656 274.303 47.656C288.319 47.656 298.687 58.504 298.687 73C298.687 75.016 298.496 76.936 298.111 78.76H264.031ZM263.743 68.008H284.383C282.847 62.44 278.527 60.424 274.207 60.424C268.735 60.424 265.087 63.112 263.743 68.008Z" fill="#0C8C5F"/>
</svg>
