<svg width="128" height="128" viewBox="0 0 128 128" fill="none" xmlns="http://www.w3.org/2000/svg">
<path d="M95.8317 101.986L73.9163 63.9971L50.8799 103.944H70.3852L69.096 101.756C68.6326 101.688 68.1904 101.517 67.8023 101.255C67.4141 100.992 67.09 100.646 66.8541 100.241C66.4514 99.5327 66.3433 98.6944 66.5531 97.907C66.7628 97.1197 67.2736 96.4465 67.975 96.033C68.6826 95.63 69.5201 95.5218 70.3066 95.7318C71.0932 95.9417 71.7657 96.453 72.1788 97.1551C72.4115 97.5609 72.5478 98.015 72.5769 98.482C72.6061 98.949 72.5274 99.4165 72.3469 99.8482L74.701 103.944H82.4919L75.7099 92.2179C75.2465 92.1502 74.8043 91.9789 74.4162 91.7167C74.028 91.4544 73.7039 91.1079 73.4679 90.7031C73.0653 89.9948 72.9572 89.1565 73.167 88.3692C73.3767 87.5818 73.8875 86.9087 74.5889 86.4952C75.2964 86.0922 76.1339 85.984 76.9205 86.1939C77.7071 86.4039 78.3795 86.9151 78.7926 87.6173C79.0254 88.0231 79.1617 88.4771 79.1908 88.9441C79.22 89.4112 79.1413 89.8787 78.9608 90.3103L86.8077 103.944H94.6547C94.889 103.941 95.1194 103.884 95.3273 103.776C95.5168 103.672 95.6725 103.516 95.7757 103.327C95.8838 103.119 95.9414 102.888 95.9439 102.653C95.9707 102.54 95.9746 102.423 95.9554 102.308C95.9361 102.194 95.8941 102.084 95.8317 101.986V101.986Z" fill="white"/>
<path d="M79.8015 74.1521L73.9163 63.9971L50.8799 103.944L79.8015 74.1521Z" fill="url(#paint0_linear_3683_125)"/>
<path d="M86.8638 24.7236L46.3959 94.8548C46.2878 95.0629 46.2302 95.2936 46.2278 95.5281C46.2302 95.7626 46.2878 95.9933 46.3959 96.2014L50.8799 104L73.9163 63.9971L95.8318 26.014C95.9399 25.8059 95.9975 25.5753 95.9999 25.3408C95.9975 25.1062 95.9399 24.8756 95.8318 24.6675C95.7286 24.4778 95.5729 24.322 95.3834 24.2187C95.1755 24.1104 94.9451 24.0528 94.7108 24.0503H87.9288C87.7113 24.0454 87.4971 24.1039 87.3122 24.2187C87.1081 24.329 86.9493 24.5078 86.8638 24.7236Z" fill="white"/>
<path d="M50.8799 24.6115L42.0801 39.5355C41.9587 39.7383 41.9002 39.9726 41.9119 40.2087C41.9143 40.4433 41.9719 40.6739 42.0801 40.882C42.1988 41.0753 42.3506 41.2462 42.5284 41.3869C42.7339 41.5014 42.9659 41.5595 43.201 41.5553L48.9181 41.6114C49.1524 41.6138 49.3828 41.6714 49.5907 41.7797C49.7984 41.9032 49.9718 42.0768 50.0952 42.2846C50.2033 42.4927 50.2609 42.7233 50.2633 42.9579C50.2609 43.1924 50.2033 43.4231 50.0952 43.6311L33.2802 71.9642C33.056 72.0203 33 72.2447 33 72.5252C33.0024 72.7597 33.06 72.9904 33.1681 73.1985L42.2482 89.4128C42.3669 89.6061 42.5187 89.7771 42.6966 89.9178C42.8992 90.0392 43.1333 90.0978 43.3692 90.0861C43.6035 90.0837 43.8339 90.026 44.0418 89.9178C44.2349 89.7989 44.4057 89.647 44.5462 89.4689L81.9314 26.2947C82.0527 26.0919 82.1113 25.8576 82.0995 25.6214C82.0971 25.3869 82.0395 25.1563 81.9314 24.9482C81.8127 24.7549 81.6609 24.5839 81.483 24.4432C81.2804 24.3218 81.0463 24.2632 80.8104 24.2749L52.0569 24C51.8226 24.0024 51.5922 24.0601 51.3843 24.1683C51.1809 24.2702 51.0071 24.4228 50.8799 24.6115V24.6115Z" fill="white"/>
<defs>
<linearGradient id="paint0_linear_3683_125" x1="50.8799" y1="83.9705" x2="79.8015" y2="83.9705" gradientUnits="userSpaceOnUse">
<stop stop-opacity="0.07"/>
<stop offset="1" stop-opacity="0.12"/>
</linearGradient>
</defs>
</svg>
